<svg width="185" height="177" viewBox="0 0 185 177" fill="none" xmlns="http://www.w3.org/2000/svg">
<g clip-path="url(#clip0_36_1033)">
<path d="M5.57729 128.32C4.13729 128.32 2.96729 129.5 2.96729 130.95C2.96729 132.4 4.13729 133.58 5.57729 133.58C7.01729 133.58 8.18728 132.4 8.18728 130.95C8.18728 129.5 7.01729 128.32 5.57729 128.32Z" fill="#FF5722"/>
<path d="M50.2374 133.58C51.6789 133.58 52.8474 132.403 52.8474 130.95C52.8474 129.498 51.6789 128.32 50.2374 128.32C48.796 128.32 47.6274 129.498 47.6274 130.95C47.6274 132.403 48.796 133.58 50.2374 133.58Z" fill="#FF5722"/>
<path d="M27.9074 128.32C26.4674 128.32 25.2974 129.5 25.2974 130.95C25.2974 132.4 26.4674 133.58 27.9074 133.58C29.3474 133.58 30.5174 132.4 30.5174 130.95C30.5174 129.5 29.3474 128.32 27.9074 128.32Z" fill="#FF5722"/>
<path d="M27.5372 106.94C26.0972 106.94 24.9272 108.12 24.9272 109.57C24.9272 111.02 26.0972 112.2 27.5372 112.2C28.9772 112.2 30.1472 111.02 30.1472 109.57C30.1472 108.12 28.9772 106.94 27.5372 106.94Z" fill="#FF5722"/>
<path d="M5.20717 106.94C3.76717 106.94 2.59717 108.12 2.59717 109.57C2.59717 111.02 3.76717 112.2 5.20717 112.2C6.64717 112.2 7.81717 111.02 7.81717 109.57C7.81717 108.12 6.64717 106.94 5.20717 106.94Z" fill="#FF5722"/>
<path d="M72.1974 106.94C70.7574 106.94 69.5874 108.12 69.5874 109.57C69.5874 111.02 70.7574 112.2 72.1974 112.2C73.6374 112.2 74.8074 111.02 74.8074 109.57C74.8074 108.12 73.6374 106.94 72.1974 106.94Z" fill="#FF5722"/>
<path d="M49.8673 106.94C48.4273 106.94 47.2573 108.12 47.2573 109.57C47.2573 111.02 48.4273 112.2 49.8673 112.2C51.3073 112.2 52.4773 111.02 52.4773 109.57C52.4773 108.12 51.3073 106.94 49.8673 106.94Z" fill="#FF5722"/>
<path d="M5.57729 171.1C4.13729 171.1 2.96729 172.28 2.96729 173.73C2.96729 175.18 4.13729 176.36 5.57729 176.36C7.01729 176.36 8.18728 175.18 8.18728 173.73C8.18728 172.28 7.01729 171.1 5.57729 171.1Z" fill="#FF5722"/>
<path d="M27.5372 149.71C26.0972 149.71 24.9272 150.89 24.9272 152.34C24.9272 153.79 26.0972 154.97 27.5372 154.97C28.9772 154.97 30.1472 153.79 30.1472 152.34C30.1472 150.89 28.9772 149.71 27.5372 149.71Z" fill="#FF5722"/>
<path d="M5.20717 149.71C3.76717 149.71 2.59717 150.89 2.59717 152.34C2.59717 153.79 3.76717 154.97 5.20717 154.97C6.64717 154.97 7.81717 153.79 7.81717 152.34C7.81717 150.89 6.64717 149.71 5.20717 149.71Z" fill="#FF5722"/>
<path d="M94.1574 85.55C92.7174 85.55 91.5474 86.73 91.5474 88.18C91.5474 89.63 92.7174 90.81 94.1574 90.81C95.5974 90.81 96.7674 89.63 96.7674 88.18C96.7674 86.73 95.5974 85.55 94.1574 85.55Z" fill="#FF5722"/>
<path d="M49.4972 85.55C48.0572 85.55 46.8872 86.73 46.8872 88.18C46.8872 89.63 48.0572 90.81 49.4972 90.81C50.9372 90.81 52.1072 89.63 52.1072 88.18C52.1072 86.73 50.9372 85.55 49.4972 85.55Z" fill="#FF5722"/>
<path d="M71.8273 90.81C73.2687 90.81 74.4373 89.6326 74.4373 88.18C74.4373 86.7275 73.2687 85.55 71.8273 85.55C70.3858 85.55 69.2173 86.7275 69.2173 88.18C69.2173 89.6326 70.3858 90.81 71.8273 90.81Z" fill="#FF5722"/>
<path d="M27.1574 85.55C25.7174 85.55 24.5474 86.73 24.5474 88.18C24.5474 89.63 25.7174 90.81 27.1574 90.81C28.5974 90.81 29.7674 89.63 29.7674 88.18C29.7674 86.73 28.6074 85.55 27.1574 85.55Z" fill="#FF5722"/>
<path d="M4.82729 85.55C3.38729 85.55 2.21729 86.73 2.21729 88.18C2.21729 89.63 3.38729 90.81 4.82729 90.81C6.26729 90.81 7.43728 89.63 7.43728 88.18C7.43728 86.73 6.26729 85.55 4.82729 85.55Z" fill="#FF5722"/>
<path d="M93.7775 64.16C92.3375 64.16 91.1675 65.34 91.1675 66.79C91.1675 68.24 92.3375 69.42 93.7775 69.42C95.2175 69.42 96.3875 68.24 96.3875 66.79C96.3875 65.34 95.2175 64.16 93.7775 64.16Z" fill="#FF5722"/>
<path d="M71.4474 64.16C70.0074 64.16 68.8374 65.34 68.8374 66.79C68.8374 68.24 70.0074 69.42 71.4474 69.42C72.8874 69.42 74.0574 68.24 74.0574 66.79C74.0574 65.34 72.8874 64.16 71.4474 64.16Z" fill="#FF5722"/>
<path d="M49.1173 64.16C47.6773 64.16 46.5073 65.34 46.5073 66.79C46.5073 68.24 47.6773 69.42 49.1173 69.42C50.5573 69.42 51.7273 68.24 51.7273 66.79C51.7273 65.34 50.5573 64.16 49.1173 64.16Z" fill="#FF5722"/>
<path d="M116.117 64.16C114.677 64.16 113.507 65.34 113.507 66.79C113.507 68.24 114.677 69.42 116.117 69.42C117.557 69.42 118.727 68.24 118.727 66.79C118.727 65.34 117.557 64.16 116.117 64.16Z" fill="#FF5722"/>
<path d="M4.45717 64.16C3.01717 64.16 1.84717 65.34 1.84717 66.79C1.84717 68.24 3.01717 69.42 4.45717 69.42C5.89717 69.42 7.06717 68.24 7.06717 66.79C7.06717 65.34 5.89717 64.16 4.45717 64.16Z" fill="#FF5722"/>
<path d="M26.7872 64.16C25.3472 64.16 24.1772 65.34 24.1772 66.79C24.1772 68.24 25.3472 69.42 26.7872 69.42C28.2272 69.42 29.3972 68.24 29.3972 66.79C29.3972 65.34 28.2272 64.16 26.7872 64.16Z" fill="#FF5722"/>
<path d="M4.08754 42.77C2.64754 42.77 1.47754 43.95 1.47754 45.4C1.47754 46.85 2.64754 48.03 4.08754 48.03C5.52754 48.03 6.69754 46.85 6.69754 45.4C6.69754 43.95 5.52754 42.77 4.08754 42.77Z" fill="#FF5722"/>
<path d="M93.4074 48.03C94.8488 48.03 96.0174 46.8525 96.0174 45.4C96.0174 43.9475 94.8488 42.77 93.4074 42.77C91.9659 42.77 90.7974 43.9475 90.7974 45.4C90.7974 46.8525 91.9659 48.03 93.4074 48.03Z" fill="#FF5722"/>
<path d="M138.068 48.03C139.509 48.03 140.678 46.8525 140.678 45.4C140.678 43.9475 139.509 42.77 138.068 42.77C136.626 42.77 135.458 43.9475 135.458 45.4C135.458 46.8525 136.626 48.03 138.068 48.03Z" fill="#FF5722"/>
<path d="M71.0773 42.77C69.6373 42.77 68.4673 43.95 68.4673 45.4C68.4673 46.85 69.6373 48.03 71.0773 48.03C72.5173 48.03 73.6873 46.85 73.6873 45.4C73.6873 43.95 72.5173 42.77 71.0773 42.77Z" fill="#FF5722"/>
<path d="M48.7472 42.77C47.3072 42.77 46.1372 43.95 46.1372 45.4C46.1372 46.85 47.3072 48.03 48.7472 48.03C50.1872 48.03 51.3572 46.85 51.3572 45.4C51.3572 43.95 50.1872 42.77 48.7472 42.77Z" fill="#FF5722"/>
<path d="M26.4171 42.77C24.9771 42.77 23.8071 43.95 23.8071 45.4C23.8071 46.85 24.9771 48.03 26.4171 48.03C27.8571 48.03 29.0271 46.85 29.0271 45.4C29.0271 43.95 27.8571 42.77 26.4171 42.77Z" fill="#FF5722"/>
<path d="M115.737 42.77C114.297 42.77 113.127 43.95 113.127 45.4C113.127 46.85 114.297 48.03 115.737 48.03C117.177 48.03 118.347 46.85 118.347 45.4C118.347 43.95 117.177 42.77 115.737 42.77Z" fill="#FF5722"/>
<path d="M3.71742 26.64C5.15889 26.64 6.32742 25.4625 6.32742 24.01C6.32742 22.5575 5.15889 21.38 3.71742 21.38C2.27596 21.38 1.10742 22.5575 1.10742 24.01C1.10742 25.4625 2.27596 26.64 3.71742 26.64Z" fill="#FF5722"/>
<path d="M115.367 21.39C113.927 21.39 112.757 22.57 112.757 24.02C112.757 25.47 113.927 26.65 115.367 26.65C116.807 26.65 117.977 25.47 117.977 24.02C117.977 22.57 116.807 21.39 115.367 21.39Z" fill="#FF5722"/>
<path d="M26.0475 21.39C24.6075 21.39 23.4375 22.57 23.4375 24.02C23.4375 25.47 24.6075 26.65 26.0475 26.65C27.4875 26.65 28.6575 25.47 28.6575 24.02C28.6575 22.57 27.4875 21.39 26.0475 21.39Z" fill="#FF5722"/>
<path d="M70.7072 21.39C69.2672 21.39 68.0972 22.57 68.0972 24.02C68.0972 25.47 69.2672 26.65 70.7072 26.65C72.1472 26.65 73.3172 25.47 73.3172 24.02C73.3172 22.57 72.1472 21.39 70.7072 21.39Z" fill="#FF5722"/>
<path d="M48.3771 21.39C46.9371 21.39 45.7671 22.57 45.7671 24.02C45.7671 25.47 46.9371 26.65 48.3771 26.65C49.8171 26.65 50.9871 25.47 50.9871 24.02C50.9871 22.57 49.8171 21.39 48.3771 21.39Z" fill="#FF5722"/>
<path d="M93.0372 21.39C91.5972 21.39 90.4272 22.57 90.4272 24.02C90.4272 25.47 91.5972 26.65 93.0372 26.65C94.4772 26.65 95.6472 25.47 95.6472 24.02C95.6472 22.57 94.4772 21.39 93.0372 21.39Z" fill="#FF5722"/>
<path d="M160.027 21.39C158.587 21.39 157.417 22.57 157.417 24.02C157.417 25.47 158.587 26.65 160.027 26.65C161.467 26.65 162.637 25.47 162.637 24.02C162.637 22.57 161.477 21.39 160.027 21.39Z" fill="#FF5722"/>
<path d="M137.697 21.39C136.257 21.39 135.087 22.57 135.087 24.02C135.087 25.47 136.257 26.65 137.697 26.65C139.137 26.65 140.307 25.47 140.307 24.02C140.307 22.57 139.147 21.39 137.697 21.39Z" fill="#FF5722"/>
<path d="M25.6774 5.24999C27.1174 5.24999 28.2874 4.06999 28.2874 2.61999C28.2874 1.16999 27.1174 -0.0100098 25.6774 -0.0100098C24.2374 -0.0100098 23.0674 1.16999 23.0674 2.61999C23.0674 4.06999 24.2374 5.24999 25.6774 5.24999Z" fill="#FF5722"/>
<path d="M3.3473 5.25C4.7873 5.25 5.9573 4.07 5.9573 2.62C5.9573 1.17 4.7773 0 3.3473 0C1.9173 0 0.737305 1.18 0.737305 2.63C0.737305 4.08 1.9073 5.26 3.3473 5.26V5.25Z" fill="#FF5722"/>
<path d="M159.657 5.26C161.099 5.26 162.267 4.08251 162.267 2.63C162.267 1.17749 161.099 0 159.657 0C158.216 0 157.047 1.17749 157.047 2.63C157.047 4.08251 158.216 5.26 159.657 5.26Z" fill="#FF5722"/>
<path d="M92.6671 5.24999C94.1071 5.24999 95.2771 4.06999 95.2771 2.61999C95.2771 1.16999 94.1071 -0.0100098 92.6671 -0.0100098C91.2271 -0.0100098 90.0571 1.16999 90.0571 2.61999C90.0571 4.06999 91.2271 5.24999 92.6671 5.24999Z" fill="#FF5722"/>
<path d="M114.997 5.24999C116.437 5.24999 117.607 4.06999 117.607 2.61999C117.607 1.16999 116.437 -0.0100098 114.997 -0.0100098C113.557 -0.0100098 112.387 1.16999 112.387 2.61999C112.387 4.06999 113.557 5.24999 114.997 5.24999Z" fill="#FF5722"/>
<path d="M137.327 5.24999C138.767 5.24999 139.937 4.06999 139.937 2.61999C139.937 1.16999 138.767 -0.0100098 137.327 -0.0100098C135.887 -0.0100098 134.717 1.16999 134.717 2.61999C134.717 4.06999 135.887 5.24999 137.327 5.24999Z" fill="#FF5722"/>
<path d="M48.0075 5.24999C49.4475 5.24999 50.6175 4.06999 50.6175 2.61999C50.6175 1.16999 49.4475 -0.0100098 48.0075 -0.0100098C46.5675 -0.0100098 45.3975 1.16999 45.3975 2.61999C45.3975 4.06999 46.5675 5.24999 48.0075 5.24999Z" fill="#FF5722"/>
<path d="M181.987 5.24999C183.427 5.24999 184.597 4.06999 184.597 2.61999C184.597 1.16999 183.437 -0.0100098 181.987 -0.0100098C180.537 -0.0100098 179.377 1.16999 179.377 2.61999C179.377 4.06999 180.547 5.24999 181.987 5.24999Z" fill="#FF5722"/>
<path d="M70.3375 5.24999C71.7775 5.24999 72.9475 4.06999 72.9475 2.61999C72.9475 1.16999 71.7775 -0.0100098 70.3375 -0.0100098C68.8975 -0.0100098 67.7275 1.16999 67.7275 2.61999C67.7275 4.06999 68.8975 5.24999 70.3375 5.24999Z" fill="#FF5722"/>
</g>
<defs>
<clipPath id="clip0_36_1033">
<rect width="183.86" height="176.35" fill="white" transform="translate(0.737305)"/>
</clipPath>
</defs>
</svg>
