<svg width="33" height="32" viewBox="0 0 33 32" fill="none" xmlns="http://www.w3.org/2000/svg">
<path d="M16.7373 0C7.9181 0 0.737305 7.1808 0.737305 16C0.737305 24.8192 7.9181 32 16.7373 32C25.5565 32 32.7373 24.8256 32.7373 16C32.7373 7.1744 25.5629 0 16.7373 0ZM21.1725 9.4912C21.1725 9.6256 21.0637 9.7344 20.9293 9.7344H19.0029C18.5293 9.7344 18.1453 10.1184 18.1453 10.592V12.608H20.8845C20.8909 12.608 20.8973 12.608 20.9037 12.608C21.0381 12.6208 21.1341 12.736 21.1213 12.8704L20.8781 15.712C20.8653 15.84 20.7629 15.936 20.6349 15.936H18.1389V25.3632C18.1389 25.4976 18.0301 25.6064 17.8957 25.6064H14.4525C14.3181 25.6064 14.2093 25.4976 14.2093 25.3632V16.0768V15.9232H12.4877C12.3533 15.9232 12.2445 15.8144 12.2445 15.68V12.8384C12.2445 12.704 12.3533 12.5952 12.4877 12.5952H14.2093V9.856C14.2093 7.9488 15.7581 6.4 17.6653 6.4H20.9165C21.0509 6.4 21.1597 6.5088 21.1597 6.6432V9.4912H21.1725Z" fill="#075605"/>
</svg>
