<svg width="33" height="32" viewBox="0 0 33 32" fill="none" xmlns="http://www.w3.org/2000/svg">
<path d="M16.7373 32C25.5739 32 32.7373 24.8366 32.7373 16C32.7373 7.16344 25.5739 0 16.7373 0C7.90075 0 0.737305 7.16344 0.737305 16C0.737305 24.8366 7.90075 32 16.7373 32Z" fill="#075605"/>
<path d="M26.5381 11.4988C25.8524 11.8028 25.1148 12.0084 24.3413 12.1003C25.1311 11.6271 25.7372 10.8784 26.0233 9.98483C25.2843 10.4232 24.4654 10.7412 23.5946 10.9126C22.897 10.1697 21.903 9.70532 20.8024 9.70532C18.6907 9.70532 16.9779 11.418 16.9779 13.5298C16.9779 13.8295 17.0119 14.1213 17.0775 14.4014C13.899 14.242 11.0808 12.7195 9.19442 10.405C8.86528 10.9697 8.67647 11.6271 8.67647 12.3279C8.67647 13.6544 9.35214 14.8255 10.3778 15.5112C9.75116 15.4915 9.16105 15.3195 8.64566 15.0323C8.64538 15.0485 8.64538 15.0648 8.64538 15.0808C8.64538 16.9338 9.96421 18.4794 11.7134 18.8305C11.3929 18.9183 11.0543 18.9648 10.7061 18.9648C10.4591 18.9648 10.2198 18.9412 9.98646 18.8967C10.473 20.4157 11.8851 21.5215 13.5591 21.5526C12.2499 22.5785 10.6011 23.1897 8.80881 23.1897C8.50077 23.1897 8.19559 23.1718 7.89697 23.1361C9.58858 24.2216 11.5993 24.8545 13.759 24.8545C20.7935 24.8545 24.6405 19.027 24.6405 13.9727C24.6405 13.807 24.6368 13.6419 24.6294 13.4781C25.3772 12.9391 26.0255 12.2657 26.5381 11.4988Z" fill="#F1F2F2"/>
</svg>
