<svg width="33" height="32" viewBox="0 0 33 32" fill="none" xmlns="http://www.w3.org/2000/svg">
<path d="M16.7373 32C25.5739 32 32.7373 24.8366 32.7373 16C32.7373 7.16344 25.5739 0 16.7373 0C7.90075 0 0.737305 7.16344 0.737305 16C0.737305 24.8366 7.90075 32 16.7373 32Z" fill="#075605"/>
<path d="M21.5375 8.19995H11.9375C10.2708 8.19995 8.9375 9.53328 8.9375 11.2V20.8C8.9375 22.4666 10.2708 23.8 11.9375 23.8H21.5375C23.2042 23.8 24.5375 22.4666 24.5375 20.8V11.1999C24.5375 9.53328 23.2042 8.19995 21.5375 8.19995ZM22.4042 9.99995H22.7375V12.6666H20.0708V9.99995H22.4042ZM14.5375 14.4C15.0042 13.7333 15.8708 13.2666 16.7375 13.2666C17.6042 13.2666 18.4709 13.7333 18.9375 14.4C19.2708 14.8666 19.4708 15.4 19.4708 16C19.4708 17.5333 18.2042 18.7333 16.7375 18.7333C15.2708 18.7333 14.0042 17.5333 14.0042 16C14.0042 15.4 14.2042 14.8666 14.5375 14.4ZM23.0042 20.8C23.0042 21.6 22.3375 22.2666 21.5375 22.2666H11.9375C11.1375 22.2666 10.4708 21.6 10.4708 20.8V14.4H12.8042C12.6042 14.8666 12.4708 15.4666 12.4708 16C12.4708 18.3333 14.4042 20.2666 16.7375 20.2666C19.0708 20.2666 21.0042 18.3333 21.0042 16C21.0042 15.4666 20.8708 14.8666 20.6708 14.4H23.0042L23.0042 20.8Z" fill="white"/>
</svg>
