<svg width="33" height="32" viewBox="0 0 33 32" fill="none" xmlns="http://www.w3.org/2000/svg">
<path fill-rule="evenodd" clip-rule="evenodd" d="M23.3235 4C25.1115 4 26.8315 4.70667 28.0968 5.97467C29.3635 7.24 30.0715 8.94667 30.0715 10.7333V21.2667C30.0715 24.9867 27.0448 28 23.3235 28H10.1515C6.43012 28 3.40479 24.9867 3.40479 21.2667V10.7333C3.40479 7.01333 6.41679 4 10.1515 4H23.3235ZM25.4448 12.72L25.5515 12.6133C25.8701 12.2267 25.8701 11.6667 25.5368 11.28C25.3515 11.0813 25.0968 10.96 24.8315 10.9333C24.5515 10.9187 24.2848 11.0133 24.0835 11.2L18.0715 16C17.2981 16.6413 16.1901 16.6413 15.4048 16L9.40479 11.2C8.99012 10.8933 8.41679 10.9333 8.07145 11.2933C7.71145 11.6533 7.67145 12.2267 7.97679 12.6267L8.15145 12.8L14.2181 17.5333C14.9648 18.12 15.8701 18.44 16.8181 18.44C17.7635 18.44 18.6848 18.12 19.4301 17.5333L25.4448 12.72Z" fill="#191825" fill-opacity="0.75"/>
</svg>
